<svg xmlns="http://www.w3.org/2000/svg" viewBox="0 0 800 450" width="100%" height="100%">
  <defs>
    <linearGradient id="bg" x1="0%" y1="0%" x2="100%" y2="100%">
      <stop offset="0%" stop-color="#0b0f19"/>
      <stop offset="100%" stop-color="#15102a"/>
    </linearGradient>
    <linearGradient id="glow" x1="0%" y1="0%" x2="100%" y2="0%">
      <stop offset="0%" stop-color="#6366f1"/>
      <stop offset="100%" stop-color="#a855f7"/>
    </linearGradient>
    <filter id="blur" x="-20%" y="-20%" width="140%" height="140%">
      <feGaussianBlur stdDeviation="30"/>
    </filter>
  </defs>
  <rect width="800" height="450" fill="url(#bg)"/>
  <circle cx="200" cy="150" r="100" fill="#6366f1" opacity="0.15" filter="url(#blur)"/>
  <circle cx="600" cy="300" r="120" fill="#a855f7" opacity="0.18" filter="url(#blur)"/>
  
  <!-- Grid -->
  <g stroke="#ffffff" stroke-opacity="0.04" stroke-width="1">
    <line x1="100" y1="0" x2="100" y2="450"/>
    <line x1="200" y1="0" x2="200" y2="450"/>
    <line x1="300" y1="0" x2="300" y2="450"/>
    <line x1="400" y1="0" x2="400" y2="450"/>
    <line x1="500" y1="0" x2="500" y2="450"/>
    <line x1="600" y1="0" x2="600" y2="450"/>
    <line x1="700" y1="0" x2="700" y2="450"/>
    <line x1="0" y1="100" x2="800" y2="100"/>
    <line x1="0" y1="200" x2="800" y2="200"/>
    <line x1="0" y1="300" x2="800" y2="300"/>
    <line x1="0" y1="400" x2="800" y2="400"/>
  </g>

  <!-- Agent Network Nodes & Connecting Edges -->
  <path d="M 180 225 L 340 140 L 480 140 L 620 225 L 480 310 L 340 310 Z" fill="none" stroke="url(#glow)" stroke-width="2" stroke-dasharray="6,4"/>
  <line x1="340" y1="140" x2="480" y2="310" stroke="#6366f1" stroke-width="1.5" stroke-opacity="0.4"/>
  <line x1="480" y1="140" x2="340" y2="310" stroke="#a855f7" stroke-width="1.5" stroke-opacity="0.4"/>
  <line x1="180" y1="225" x2="400" y2="225" stroke="#38bdf8" stroke-width="2"/>
  <line x1="400" y1="225" x2="620" y2="225" stroke="#38bdf8" stroke-width="2"/>

  <!-- Center Orchestrator Node -->
  <circle cx="400" cy="225" r="45" fill="#1e1b4b" stroke="#818cf8" stroke-width="3"/>
  <text x="400" y="222" fill="#ffffff" font-family="sans-serif" font-size="12" font-weight="bold" text-anchor="middle">MASTER</text>
  <text x="400" y="238" fill="#a5b4fc" font-family="sans-serif" font-size="10" text-anchor="middle">ORCHESTRATOR</text>

  <!-- Node 1: Retrieval Node -->
  <circle cx="180" cy="225" r="32" fill="#0f172a" stroke="#38bdf8" stroke-width="2"/>
  <text x="180" y="228" fill="#38bdf8" font-family="sans-serif" font-size="10" font-weight="bold" text-anchor="middle">RAG / KB</text>

  <!-- Node 2: Planner Node -->
  <circle cx="340" cy="140" r="30" fill="#0f172a" stroke="#818cf8" stroke-width="2"/>
  <text x="340" y="144" fill="#a5b4fc" font-family="sans-serif" font-size="10" font-weight="bold" text-anchor="middle">PLANNER</text>

  <!-- Node 3: Tool Execution Node -->
  <circle cx="480" cy="140" r="30" fill="#0f172a" stroke="#c084fc" stroke-width="2"/>
  <text x="480" y="144" fill="#d8b4fe" font-family="sans-serif" font-size="10" font-weight="bold" text-anchor="middle">TOOLS</text>

  <!-- Node 4: Critic Node -->
  <circle cx="620" cy="225" r="32" fill="#0f172a" stroke="#f43f5e" stroke-width="2"/>
  <text x="620" y="228" fill="#fb7185" font-family="sans-serif" font-size="10" font-weight="bold" text-anchor="middle">CRITIC</text>

  <!-- Node 5: State Store -->
  <circle cx="480" cy="310" r="30" fill="#0f172a" stroke="#10b981" stroke-width="2"/>
  <text x="480" y="314" fill="#6ee7b7" font-family="sans-serif" font-size="10" font-weight="bold" text-anchor="middle">MEMORY</text>

  <!-- Node 6: Dispatch Node -->
  <circle cx="340" cy="310" r="30" fill="#0f172a" stroke="#fbbf24" stroke-width="2"/>
  <text x="340" y="314" fill="#fde68a" font-family="sans-serif" font-size="10" font-weight="bold" text-anchor="middle">ACTIONS</text>

  <!-- Top Badge -->
  <rect x="270" y="40" width="260" height="32" rx="16" fill="#1e1b4b" stroke="#6366f1" stroke-width="1"/>
  <text x="400" y="60" fill="#c7d2fe" font-family="sans-serif" font-size="11" font-weight="600" text-anchor="middle">LANGGRAPH MULTI-AGENT ARCHITECTURE</text>
</svg>