<svg xmlns="http://www.w3.org/2000/svg" viewBox="0 0 800 450" width="100%" height="100%">
  <defs>
    <linearGradient id="bg18" x1="0%" y1="0%" x2="100%" y2="100%">
      <stop offset="0%" stop-color="#041b21"/>
      <stop offset="100%" stop-color="#082b35"/>
    </linearGradient>
  </defs>
  <rect width="800" height="450" fill="url(#bg18)"/>

  <!-- Neural Network Layers -->
  <g stroke="#06b6d4" stroke-opacity="0.3" stroke-width="1.5">
    <!-- Input to Hidden 1 -->
    <line x1="180" y1="120" x2="340" y2="100"/>
    <line x1="180" y1="120" x2="340" y2="180"/>
    <line x1="180" y1="120" x2="340" y2="260"/>
    <line x1="180" y1="225" x2="340" y2="100"/>
    <line x1="180" y1="225" x2="340" y2="180"/>
    <line x1="180" y1="225" x2="340" y2="260"/>
    <line x1="180" y1="330" x2="340" y2="180"/>
    <line x1="180" y1="330" x2="340" y2="260"/>
    <line x1="180" y1="330" x2="340" y2="340"/>

    <!-- Hidden 1 to Hidden 2 -->
    <line x1="340" y1="100" x2="500" y2="140"/>
    <line x1="340" y1="180" x2="500" y2="140"/>
    <line x1="340" y1="260" x2="500" y2="225"/>
    <line x1="340" y1="340" x2="500" y2="310"/>

    <!-- Hidden 2 to Output -->
    <line x1="500" y1="140" x2="640" y2="225"/>
    <line x1="500" y1="225" x2="640" y2="225"/>
    <line x1="500" y1="310" x2="640" y2="225"/>
  </g>

  <!-- Layer Nodes -->
  <circle cx="180" cy="120" r="14" fill="#083344" stroke="#06b6d4" stroke-width="2"/>
  <circle cx="180" cy="225" r="14" fill="#083344" stroke="#06b6d4" stroke-width="2"/>
  <circle cx="180" cy="330" r="14" fill="#083344" stroke="#06b6d4" stroke-width="2"/>

  <circle cx="340" cy="100" r="14" fill="#083344" stroke="#22d3ee" stroke-width="2"/>
  <circle cx="340" cy="180" r="14" fill="#083344" stroke="#22d3ee" stroke-width="2"/>
  <circle cx="340" cy="260" r="14" fill="#083344" stroke="#22d3ee" stroke-width="2"/>
  <circle cx="340" cy="340" r="14" fill="#083344" stroke="#22d3ee" stroke-width="2"/>

  <circle cx="500" cy="140" r="14" fill="#083344" stroke="#67e8f9" stroke-width="2"/>
  <circle cx="500" cy="225" r="14" fill="#083344" stroke="#67e8f9" stroke-width="2"/>
  <circle cx="500" cy="310" r="14" fill="#083344" stroke="#67e8f9" stroke-width="2"/>

  <circle cx="640" cy="225" r="18" fill="#155e75" stroke="#a5f3fc" stroke-width="3"/>

  <!-- Convergence Math Card -->
  <rect x="250" y="30" width="300" height="34" rx="17" fill="#083344" stroke="#06b6d4" stroke-width="1"/>
  <text x="400" y="52" fill="#cffafe" font-family="monospace" font-size="11" font-weight="bold" text-anchor="middle">DEEP LEARNING TENSOR CORE</text>
</svg>